<svg version="1.1" viewBox="0.0 0.0 64.0 64.0" fill="none" stroke="none" stroke-linecap="square" stroke-miterlimit="10" xmlns:xlink="http://www.w3.org/1999/xlink" xmlns="http://www.w3.org/2000/svg"><clipPath id="p.0"><path d="m0 0l64.0 0l0 64.0l-64.0 0l0 -64.0z" clip-rule="nonzero"/></clipPath><g clip-path="url(#p.0)"><path fill="#000000" fill-opacity="0.0" d="m0 0l64.0 0l0 64.0l-64.0 0z" fill-rule="evenodd"/><path fill="#a3a3a3" d="m6.9961014 12.951695l0 0c0 -2.7346249 2.2168512 -4.951476 4.951476 -4.951476l31.545864 0c1.3132133 0 2.5726433 0.52167225 3.5012245 1.4502535c0.92858124 0.9285822 1.4502525 2.1880093 1.4502525 3.5012226l0 33.089176c0 2.734623 -2.2168503 4.951473 -4.951477 4.951473l-31.545864 0c-2.7346249 0 -4.951476 -2.2168503 -4.951476 -4.951473z" fill-rule="evenodd"/><path stroke="#666666" stroke-width="4.0" stroke-linejoin="round" stroke-linecap="butt" d="m6.9961014 12.951695l0 0c0 -2.7346249 2.2168512 -4.951476 4.951476 -4.951476l31.545864 0c1.3132133 0 2.5726433 0.52167225 3.5012245 1.4502535c0.92858124 0.9285822 1.4502525 2.1880093 1.4502525 3.5012226l0 33.089176c0 2.734623 -2.2168503 4.951473 -4.951477 4.951473l-31.545864 0c-2.7346249 0 -4.951476 -2.2168503 -4.951476 -4.951473z" fill-rule="evenodd"/><path fill="#b7b7b7" d="m15.555079 21.990768l0 0c0 -2.9939861 2.427106 -5.421091 5.421092 -5.421091l30.606638 0c1.4377594 0 2.8166351 0.5711479 3.83329 1.587801c1.0166512 1.0166512 1.5877991 2.395527 1.5877991 3.83329l0 32.149944c0 2.9939842 -2.427105 5.421089 -5.421089 5.421089l-30.606638 0l0 0c-2.9939861 0 -5.421092 -2.427105 -5.421092 -5.421089z" fill-rule="evenodd"/><path stroke="#666666" stroke-width="4.0" stroke-linejoin="round" stroke-linecap="butt" d="m15.555079 21.990768l0 0c0 -2.9939861 2.427106 -5.421091 5.421092 -5.421091l30.606638 0c1.4377594 0 2.8166351 0.5711479 3.83329 1.587801c1.0166512 1.0166512 1.5877991 2.395527 1.5877991 3.83329l0 32.149944c0 2.9939842 -2.427105 5.421089 -5.421089 5.421089l-30.606638 0l0 0c-2.9939861 0 -5.421092 -2.427105 -5.421092 -5.421089z" fill-rule="evenodd"/></g></svg>